<svg width="24" height="24" viewBox="0 0 24 24" fill="none" xmlns="http://www.w3.org/2000/svg">
<path d="M3.59641 4.19521C3.59641 4.03608 3.65963 3.88347 3.77215 3.77095C3.88467 3.65843 4.03728 3.59521 4.19641 3.59521H4.72201C5.59441 3.59521 6.09601 4.16281 6.38641 4.72921C6.58441 5.11681 6.72721 5.58961 6.84601 6.00001H19.2C19.3854 6.00007 19.5683 6.04309 19.7343 6.12571C19.9003 6.20832 20.0449 6.32828 20.1568 6.47617C20.2686 6.62406 20.3447 6.79585 20.379 6.97807C20.4132 7.1603 20.4048 7.34798 20.3544 7.52641L18.5592 13.8564C18.4164 14.3586 18.1137 14.8006 17.6971 15.1152C17.2804 15.4299 16.7725 15.6001 16.2504 15.6H10.1556C9.62914 15.6002 9.11722 15.4273 8.69872 15.1078C8.28021 14.7884 7.97834 14.3403 7.83961 13.8324L7.06921 11.0064C7.0648 10.9937 7.0608 10.9809 7.05721 10.968L5.82001 6.77161L5.70001 6.36721C5.58001 5.95201 5.47441 5.58481 5.31601 5.27641C5.12521 4.90441 4.95001 4.79641 4.72081 4.79641H4.19521C4.03608 4.79641 3.88347 4.7332 3.77095 4.62068C3.65843 4.50816 3.59521 4.35554 3.59521 4.19641L3.59641 4.19521ZM10.2 20.4C10.6774 20.4 11.1352 20.2104 11.4728 19.8728C11.8104 19.5352 12 19.0774 12 18.6C12 18.1226 11.8104 17.6648 11.4728 17.3272C11.1352 16.9897 10.6774 16.8 10.2 16.8C9.72262 16.8 9.26479 16.9897 8.92722 17.3272C8.58966 17.6648 8.40001 18.1226 8.40001 18.6C8.40001 19.0774 8.58966 19.5352 8.92722 19.8728C9.26479 20.2104 9.72262 20.4 10.2 20.4ZM16.2 20.4C16.6774 20.4 17.1352 20.2104 17.4728 19.8728C17.8104 19.5352 18 19.0774 18 18.6C18 18.1226 17.8104 17.6648 17.4728 17.3272C17.1352 16.9897 16.6774 16.8 16.2 16.8C15.7226 16.8 15.2648 16.9897 14.9272 17.3272C14.5897 17.6648 14.4 18.1226 14.4 18.6C14.4 19.0774 14.5897 19.5352 14.9272 19.8728C15.2648 20.2104 15.7226 20.4 16.2 20.4Z" fill="white"/>
</svg>
